<svg xmlns="http://www.w3.org/2000/svg" width="510.75" height="284.48" viewBox="0 0 510.75 284.48"><g id="Layer_2" data-name="Layer 2"><path d="M242.87,154.56l-19.07-7.92c0,.28,0,.65,0,1.07,0-.57,0-1.15,0-1.73a90.73,90.73,0,0,0-1-13.68l16.57-8.49c4.44-1.71,2.78-8.39,2.78-8.39-1.07-2.79-4.57-4.2-4.57-4.2l-20.65.19A90.75,90.75,0,0,0,211,99.77L223.1,85.65c3.47-3.28-.61-8.83-.61-8.83-2-2.17-5.82-2.15-5.82-2.15l-19,8c.21.2.47.48.75.8a89.67,89.67,0,0,0-10.61-9.33l5.87-17.67c2-4.34-3.9-7.94-3.9-7.94-2.71-1.24-6.2.21-6.2.21l-14.6,14.6a89,89,0,0,0-12.37-4.18l-1.25-18.56c.18-4.76-6.61-5.87-6.61-5.87-3-.12-5.66,2.54-5.66,2.54l-8,19.05c.28,0,.63,0,1,0l-2,0a90.17,90.17,0,0,0-10.59.63L112.92,40.59c-1.68-4.46-8.38-2.86-8.38-2.86-2.79,1.05-4.23,4.54-4.23,4.54V62.92a89.38,89.38,0,0,0-11.07,5.43L75.33,56c-3.22-3.53-8.84.45-8.84.45-2.2,2-2.25,5.78-2.25,5.78L71.9,81.4c.2-.2.48-.45.79-.72a91.13,91.13,0,0,0-9.48,10.44L45.64,84.94c-4.31-2-8,3.76-8,3.76-1.28,2.7.1,6.21.1,6.21l14.36,14.85a88.77,88.77,0,0,0-4.39,12.29L29.12,123c-4.77-.26-6,6.51-6,6.51-.17,3,2.44,5.71,2.44,5.71l18.91,8.31c0-.3,0-.68.06-1.11,0,1.19-.08,2.38-.08,3.58a90.1,90.1,0,0,0,.76,11.68l-16.76,8.11c-4.48,1.62-3,8.33-3,8.33,1,2.81,4.48,4.3,4.48,4.3l20.64.28a89.5,89.5,0,0,0,6.09,12.53l-12.3,14c-3.52,3.23.49,8.84.49,8.84,2,2.19,5.79,2.22,5.79,2.22l19.14-7.75c-.19-.19-.42-.43-.67-.73a89.27,89.27,0,0,0,10.43,9.38l-6.1,17.6c-2,4.32,3.8,8,3.8,8,2.7,1.27,6.2-.13,6.2-.13l14.79-14.42-.4-.17a89.71,89.71,0,0,0,14.22,4.9l1.34,18.56c-.16,4.77,6.65,5.85,6.65,5.85,3,.1,5.64-2.57,5.64-2.57l7.9-19.09c-.29,0-.67,0-1.1,0l1.61,0a90.49,90.49,0,0,0,12.5-.87l8.27,16.69c1.66,4.47,8.36,2.89,8.36,2.89,2.8-1,4.26-4.52,4.26-4.52l.08-20.65a90.6,90.6,0,0,0,13-6.48l14.16,12.08c3.28,3.46,8.82-.63,8.82-.63,2.17-2.05,2.14-5.83,2.14-5.83l-8.05-19c-.2.21-.48.47-.8.76a89.81,89.81,0,0,0,9.3-10.65l17.69,5.83c4.35,2,7.93-3.93,7.93-3.93,1.23-2.71-.23-6.2-.23-6.2l-14.64-14.56A88.29,88.29,0,0,0,221,168.16l18.56-1.31c4.77.17,5.86-6.63,5.86-6.63C245.54,157.24,242.87,154.56,242.87,154.56ZM134.28,223.12A77.11,77.11,0,1,1,211.39,146,77.1,77.1,0,0,1,134.28,223.12Z" transform="translate(-22.62 -34.21)" fill="#1c75bc" stroke="#6095cf" stroke-miterlimit="10"/><path d="M372,162.88,360.3,158c0,.18,0,.4,0,.66,0-.35,0-.71,0-1.06a55.53,55.53,0,0,0-.64-8.42l10.2-5.23c2.74-1,1.71-5.17,1.71-5.17a5.53,5.53,0,0,0-2.81-2.58l-12.71.12a55.25,55.25,0,0,0-3.63-7.16l7.46-8.7c2.13-2-.37-5.43-.37-5.43a5.53,5.53,0,0,0-3.59-1.33l-11.72,4.92.47.5a55.83,55.83,0,0,0-6.54-5.75l3.62-10.87c1.21-2.68-2.4-4.89-2.4-4.89a5.53,5.53,0,0,0-3.82.13l-9,9a53.18,53.18,0,0,0-7.61-2.57l-.77-11.43c.12-2.93-4.07-3.61-4.07-3.61a5.53,5.53,0,0,0-3.48,1.56l-4.92,11.72.64,0-1.21,0a56.09,56.09,0,0,0-6.52.39l-6.54-10.07C291,90,286.9,91,286.9,91a5.55,5.55,0,0,0-2.61,2.79v12.72a54.36,54.36,0,0,0-6.81,3.34l-8.56-7.61c-2-2.17-5.44.28-5.44.28a5.49,5.49,0,0,0-1.39,3.55l4.72,11.81c.13-.13.29-.28.49-.45a56.48,56.48,0,0,0-5.84,6.43L250.64,120c-2.65-1.26-4.92,2.31-4.92,2.31a5.53,5.53,0,0,0,.06,3.82l8.83,9.14a55.57,55.57,0,0,0-2.69,7.56l-11.44.58c-2.93-.16-3.69,4-3.69,4A5.54,5.54,0,0,0,238.3,151l11.63,5.11c0-.18,0-.41,0-.68,0,.73-.05,1.47-.05,2.21a54.92,54.92,0,0,0,.47,7.18l-10.31,5c-2.77,1-1.83,5.12-1.83,5.12a5.53,5.53,0,0,0,2.75,2.65l12.71.17a54.32,54.32,0,0,0,3.74,7.71l-7.57,8.6c-2.16,2,.3,5.44.3,5.44a5.54,5.54,0,0,0,3.57,1.37l11.78-4.77c-.12-.12-.26-.27-.41-.45a54.07,54.07,0,0,0,6.42,5.77l-3.76,10.84c-1.25,2.65,2.34,4.91,2.34,4.91a5.54,5.54,0,0,0,3.82-.08l9.1-8.87-.25-.11a54.56,54.56,0,0,0,8.76,3l.82,11.42c-.1,2.94,4.09,3.6,4.09,3.6a5.57,5.57,0,0,0,3.48-1.58l4.86-11.75-.68,0h1a54.17,54.17,0,0,0,7.69-.54l5.1,10.27c1,2.75,5.14,1.78,5.14,1.78a5.51,5.51,0,0,0,2.62-2.78l0-12.71a54.41,54.41,0,0,0,8-4l8.72,7.44c2,2.13,5.43-.39,5.43-.39a5.54,5.54,0,0,0,1.32-3.58l-5-11.71c-.12.13-.29.29-.49.47a56,56,0,0,0,5.73-6.56l10.88,3.59c2.68,1.2,4.88-2.42,4.88-2.42a5.48,5.48,0,0,0-.14-3.81l-9-9a54.51,54.51,0,0,0,2.55-7.62l11.42-.81c2.94.1,3.61-4.08,3.61-4.08A5.53,5.53,0,0,0,372,162.88Zm-66.71,42A47.87,47.87,0,1,1,353.2,157,47.87,47.87,0,0,1,305.33,204.84Z" transform="translate(-22.62 -34.21)" fill="#91d0b4" stroke="#009444" stroke-miterlimit="10" stroke-width="0.88"/><path d="M531.41,153.19l-11.74-4.87a5.28,5.28,0,0,1,0,.66c0-.36,0-.71,0-1.07a55.72,55.72,0,0,0-.64-8.42l10.19-5.22c2.74-1.06,1.72-5.17,1.72-5.17a5.54,5.54,0,0,0-2.82-2.58l-12.71.11a55.27,55.27,0,0,0-3.63-7.16l7.46-8.69c2.14-2-.37-5.44-.37-5.44a5.54,5.54,0,0,0-3.58-1.32l-11.72,4.92c.13.12.28.29.46.49a55,55,0,0,0-6.54-5.74l3.62-10.88c1.21-2.67-2.4-4.89-2.4-4.89a5.57,5.57,0,0,0-3.82.14l-9,9a56.25,56.25,0,0,0-7.61-2.57l-.77-11.42c.11-2.93-4.07-3.62-4.07-3.62A5.53,5.53,0,0,0,470,81l-4.91,11.72.63,0h-1.21a55.93,55.93,0,0,0-6.51.38l-6.54-10.06c-1-2.75-5.16-1.76-5.16-1.76a5.52,5.52,0,0,0-2.6,2.79V96.79a55.08,55.08,0,0,0-6.81,3.34l-8.57-7.61c-2-2.17-5.44.28-5.44.28a5.56,5.56,0,0,0-1.38,3.56l4.71,11.81c.13-.13.3-.28.49-.45a54.66,54.66,0,0,0-5.83,6.43L410,110.34c-2.65-1.26-4.93,2.32-4.93,2.32a5.53,5.53,0,0,0,.06,3.82l8.84,9.14a54.29,54.29,0,0,0-2.7,7.56l-11.44.58c-2.93-.17-3.69,4-3.69,4a5.51,5.51,0,0,0,1.51,3.51l11.64,5.12c0-.18,0-.41,0-.68,0,.73,0,1.46,0,2.2a56.76,56.76,0,0,0,.46,7.19l-10.31,5c-2.76,1-1.83,5.13-1.83,5.13a5.53,5.53,0,0,0,2.75,2.65l12.71.17a56,56,0,0,0,3.74,7.71l-7.57,8.6c-2.16,2,.31,5.44.31,5.44a5.52,5.52,0,0,0,3.56,1.37l11.78-4.77-.41-.45a55.87,55.87,0,0,0,6.42,5.77l-3.75,10.83c-1.25,2.66,2.33,4.92,2.33,4.92a5.54,5.54,0,0,0,3.82-.08l9.1-8.88-.24-.1a55.09,55.09,0,0,0,8.75,3l.83,11.42c-.1,2.93,4.08,3.6,4.08,3.6a5.52,5.52,0,0,0,3.48-1.59l4.86-11.74-.67,0,1,0a55.94,55.94,0,0,0,7.7-.54l5.09,10.27c1,2.75,5.14,1.78,5.14,1.78a5.55,5.55,0,0,0,2.62-2.78l.05-12.71a54.52,54.52,0,0,0,8-4l8.71,7.43c2,2.13,5.44-.38,5.44-.38a5.53,5.53,0,0,0,1.31-3.59l-4.95-11.71c-.13.14-.3.29-.5.47a55.76,55.76,0,0,0,5.73-6.55l10.89,3.58c2.67,1.21,4.88-2.41,4.88-2.41a5.57,5.57,0,0,0-.14-3.82l-9-9a53.37,53.37,0,0,0,2.55-7.63l11.43-.8c2.93.1,3.6-4.09,3.6-4.09A5.57,5.57,0,0,0,531.41,153.19Zm-67.12,42.34a47.87,47.87,0,1,1,47.87-47.87A47.87,47.87,0,0,1,464.29,195.53Z" transform="translate(-22.62 -34.21)" fill="#fcbe7f" stroke="#d36027" stroke-miterlimit="10" stroke-width="0.75"/><path d="M457.59,255l-11.74-4.88c0,.18,0,.41,0,.67,0-.36,0-.71,0-1.07a55.72,55.72,0,0,0-.64-8.42L455.4,236c2.74-1.06,1.71-5.17,1.71-5.17a5.53,5.53,0,0,0-2.81-2.58l-12.71.11a56.56,56.56,0,0,0-3.63-7.16l7.46-8.69c2.13-2-.37-5.44-.37-5.44a5.56,5.56,0,0,0-3.59-1.32l-11.72,4.92c.13.12.29.29.47.49a55.75,55.75,0,0,0-6.54-5.74l3.61-10.88c1.22-2.67-2.39-4.89-2.39-4.89a5.53,5.53,0,0,0-3.82.13l-9,9a54.45,54.45,0,0,0-7.61-2.57l-.77-11.42c.11-2.94-4.07-3.62-4.07-3.62a5.52,5.52,0,0,0-3.48,1.57l-4.92,11.72.64,0h-1.21a56.1,56.1,0,0,0-6.52.38l-6.54-10.06c-1-2.75-5.15-1.76-5.15-1.76a5.51,5.51,0,0,0-2.61,2.79v12.71a55.78,55.78,0,0,0-6.81,3.34l-8.56-7.61c-2-2.17-5.44.28-5.44.28a5.51,5.51,0,0,0-1.39,3.56l4.72,11.8c.12-.12.29-.27.49-.44A55.54,55.54,0,0,0,347,215.9l-10.82-3.8c-2.65-1.26-4.92,2.32-4.92,2.32a5.53,5.53,0,0,0,.06,3.82l8.83,9.14a55.57,55.57,0,0,0-2.69,7.56l-11.44.57c-2.93-.16-3.69,4-3.69,4a5.54,5.54,0,0,0,1.51,3.51l11.63,5.12c0-.18,0-.42,0-.68,0,.73,0,1.46,0,2.2a55.07,55.07,0,0,0,.47,7.19l-10.32,5c-2.76,1-1.83,5.13-1.83,5.13a5.58,5.58,0,0,0,2.76,2.64l12.71.17a55,55,0,0,0,3.74,7.72l-7.57,8.6c-2.16,2,.3,5.43.3,5.43a5.54,5.54,0,0,0,3.57,1.37l11.78-4.77c-.12-.11-.26-.27-.41-.44a55.87,55.87,0,0,0,6.42,5.77l-3.76,10.83c-1.25,2.66,2.34,4.92,2.34,4.92a5.54,5.54,0,0,0,3.82-.08l9.1-8.88-.25-.11a54.56,54.56,0,0,0,8.76,3l.82,11.43c-.1,2.93,4.09,3.59,4.09,3.59a5.57,5.57,0,0,0,3.48-1.58l4.86-11.75a5.59,5.59,0,0,1-.68,0h1a55.69,55.69,0,0,0,7.69-.53l5.09,10.27c1,2.75,5.15,1.78,5.15,1.78a5.55,5.55,0,0,0,2.62-2.78l.05-12.71a55.42,55.42,0,0,0,8-4l8.72,7.43c2,2.13,5.43-.38,5.43-.38a5.58,5.58,0,0,0,1.32-3.59l-5-11.71c-.12.13-.29.29-.49.47a55.68,55.68,0,0,0,5.72-6.55l10.89,3.58c2.68,1.21,4.88-2.41,4.88-2.41a5.5,5.5,0,0,0-.14-3.82l-9-9a55.09,55.09,0,0,0,2.55-7.63l11.42-.81c2.93.11,3.61-4.08,3.61-4.08A5.57,5.57,0,0,0,457.59,255Zm-66.46,43A47.87,47.87,0,1,1,439,250.08,47.87,47.87,0,0,1,391.13,298Z" transform="translate(-22.62 -34.21)" fill="#b29ecc" stroke="#663695" stroke-miterlimit="10"/></g><g id="Layer_1" data-name="Layer 1"><path d="M345.1,258.68" transform="translate(-22.62 -34.21)" fill="#fff"/><path d="M400.91,219" transform="translate(-22.62 -34.21)" fill="#fff"/><path d="M395.91,224" transform="translate(-22.62 -34.21)" fill="#fff"/><circle cx="134.28" cy="146.02" r="70.76" transform="translate(-41.01 -14.86) rotate(-7.72)" fill="#1c75bc" stroke="#6095cf" stroke-miterlimit="10"/><path d="M88,133.53H83.84v4.05h3.51v4H83.84v5.31h4.29V151H78.89V129.48H88Z" transform="translate(-22.62 -34.21)" fill="#fff" stroke="#3a8dde" stroke-miterlimit="10" stroke-width="0.5"/><path d="M101.81,147.87,98.6,151H89.84V129.48h8.58l3.39,3.12Zm-7-14.34v13.41h2.07V133.53Z" transform="translate(-22.62 -34.21)" fill="#fff" stroke="#3a8dde" stroke-miterlimit="10" stroke-width="0.5"/><path d="M116.15,147.87,112.94,151h-5.55l-3.3-3.12V129.48h5v17.46h2.16V129.48h5Z" transform="translate(-22.62 -34.21)" fill="#fff" stroke="#3a8dde" stroke-miterlimit="10" stroke-width="0.5"/><path d="M130.28,137.73h-4.83v-4.2h-2.13v13.41h2.13v-5.13h4.83v6.06L127,151h-5.1l-3.54-3.12V132.6l3.24-3.12H127l3.27,3.12Z" transform="translate(-22.62 -34.21)" fill="#fff" stroke="#3a8dde" stroke-miterlimit="10" stroke-width="0.5"/><path d="M144.14,151h-4.86l-.42-4H136l-.42,4h-4.83l3-21.51h7.17Zm-6.57-17h-.48l-.75,8.94h2.16Z" transform="translate(-22.62 -34.21)" fill="#fff" stroke="#3a8dde" stroke-miterlimit="10" stroke-width="0.5"/><path d="M154.37,133.53h-2.79V151h-5V133.53h-2.79v-4.05h10.53Z" transform="translate(-22.62 -34.21)" fill="#fff" stroke="#3a8dde" stroke-miterlimit="10" stroke-width="0.5"/><path d="M160.88,151h-4.95V129.48h4.95Z" transform="translate(-22.62 -34.21)" fill="#fff" stroke="#3a8dde" stroke-miterlimit="10" stroke-width="0.5"/><path d="M175.52,147.87,172.34,151h-5.52l-3.27-3.12V132.6l3.27-3.12h5.31l3.39,3.12Zm-7-14.34v13.41h2.07V133.53Z" transform="translate(-22.62 -34.21)" fill="#fff" stroke="#3a8dde" stroke-miterlimit="10" stroke-width="0.5"/><path d="M190,151h-4.11l-3.21-10.47h-.06V151h-4.65V129.48h4.14l3.18,10.35h.06V129.48H190Z" transform="translate(-22.62 -34.21)" fill="#fff" stroke="#3a8dde" stroke-miterlimit="10" stroke-width="0.5"/><path d="M94.94,159.48l3.48,3.12v3.81h-5v-2.88h-2v4.38l3.6.3,3.39,3.12v6.54L95.18,181H89.69l-3.21-3.12v-3.78h5v2.85h2v-4.5l-3.54-.27-3.45-3.12V162.6l3.24-3.12Z" transform="translate(-22.62 -34.21)" fill="#fff" stroke="#3a8dde" stroke-miterlimit="10" stroke-width="0.5"/><path d="M109.61,163.53h-4.17v4.05H109v4h-3.51v5.31h4.29V181h-9.24V159.48h9.12Z" transform="translate(-22.62 -34.21)" fill="#fff" stroke="#3a8dde" stroke-miterlimit="10" stroke-width="0.5"/><path d="M123.29,168.24l-2.49,2.07,2.49,2.1V181h-4.8v-8.58h-2.07V181h-5V159.48H120l3.33,3.12Zm-6.87-4.71v4.83h2.07v-4.83Z" transform="translate(-22.62 -34.21)" fill="#fff" stroke="#3a8dde" stroke-miterlimit="10" stroke-width="0.5"/><path d="M134.72,181h-7.5l-2.82-21.51h4.95l1.38,16.38h.33l1.23-16.38h5Z" transform="translate(-22.62 -34.21)" fill="#fff" stroke="#3a8dde" stroke-miterlimit="10" stroke-width="0.5"/><path d="M143.48,181h-4.95V159.48h4.95Z" transform="translate(-22.62 -34.21)" fill="#fff" stroke="#3a8dde" stroke-miterlimit="10" stroke-width="0.5"/><path d="M157.88,167.73h-4.83v-4.2h-2.13v13.41h2.13v-5.13h4.83v6.06L154.61,181h-5.1L146,177.87V162.6l3.24-3.12h5.4l3.27,3.12Z" transform="translate(-22.62 -34.21)" fill="#fff" stroke="#3a8dde" stroke-miterlimit="10" stroke-width="0.5"/><path d="M169,163.53h-4.17v4.05h3.51v4h-3.51v5.31h4.29V181h-9.24V159.48H169Z" transform="translate(-22.62 -34.21)" fill="#fff" stroke="#3a8dde" stroke-miterlimit="10" stroke-width="0.5"/><path d="M178.94,159.48l3.48,3.12v3.81h-4.95v-2.88h-2v4.38l3.6.3,3.39,3.12v6.54L179.18,181h-5.49l-3.21-3.12v-3.78h5v2.85h2v-4.5l-3.54-.27-3.45-3.12V162.6l3.24-3.12Z" transform="translate(-22.62 -34.21)" fill="#fff" stroke="#3a8dde" stroke-miterlimit="10" stroke-width="0.5"/><rect x="330.75" y="211.74" width="74.26" height="28.48" fill="#fff" stroke="#663695" stroke-miterlimit="10"/><polygon points="405.01 201.34 330.75 201.34 325.58 210.27 409.05 210.27 405.01 201.34" fill="#fff" stroke="#663695" stroke-miterlimit="10"/><path d="M391.48,219.85v-4.31a.39.39,0,0,1,.1.08c1.47,1.27,5.28,1.66,5.28,1.66a6.3,6.3,0,0,0,2.26-1v-7c-1.57,1.37-4.31.69-4.31.69a11.76,11.76,0,0,1-2.54-.88,5.72,5.72,0,0,0-2.74,0l.05,1.58v9.17l-18.94,24v30.53h39V243.9Z" transform="translate(-22.62 -34.21)" fill="#fff" stroke="#663695" stroke-miterlimit="10"/><circle cx="367.31" cy="205.22" r="4.47" fill="#b29ecc" stroke="#663695" stroke-miterlimit="10"/><rect x="358.44" y="225.98" width="8.81" height="14.24" fill="#b29ecc" stroke="#663695" stroke-miterlimit="10"/><rect x="369.16" y="225.98" width="8.81" height="14.24" fill="#b29ecc" stroke="#663695" stroke-miterlimit="10"/><polygon points="400.96 229.84 391.18 229.84 391.18 216.14 396.07 216.14 400.96 216.14 400.96 229.84" fill="#fff" stroke="#663695" stroke-miterlimit="10"/><line x1="396.07" y1="229.45" x2="396.07" y2="216.14" fill="#fff" stroke="#663695" stroke-miterlimit="10"/><line x1="391.37" y1="220.64" x2="400.76" y2="220.64" fill="#fff" stroke="#663695" stroke-miterlimit="10"/><line x1="391.37" y1="225.34" x2="400.76" y2="225.34" fill="#fff" stroke="#663695" stroke-miterlimit="10"/><polygon points="344.59 229.84 334.81 229.84 334.81 216.14 339.7 216.14 344.59 216.14 344.59 229.84" fill="#fff" stroke="#663695" stroke-miterlimit="10"/><line x1="339.7" y1="229.45" x2="339.7" y2="216.14" fill="#fff" stroke="#663695" stroke-miterlimit="10"/><line x1="335" y1="220.64" x2="344.4" y2="220.64" fill="#fff" stroke="#663695" stroke-miterlimit="10"/><line x1="335" y1="225.34" x2="344.4" y2="225.34" fill="#fff" stroke="#663695" stroke-miterlimit="10"/><path d="M272.7,241.39l-5.06-2.11c0,.08,0,.18,0,.29,0-.15,0-.31,0-.46a24.24,24.24,0,0,0-.28-3.63l4.39-2.25c1.18-.45.74-2.22.74-2.22a2.38,2.38,0,0,0-1.21-1.12l-5.48.05a24,24,0,0,0-1.56-3.08l3.21-3.75c.92-.86-.16-2.34-.16-2.34a2.4,2.4,0,0,0-1.54-.57l-5.05,2.12.2.21a23.75,23.75,0,0,0-2.82-2.47l1.56-4.69c.52-1.15-1-2.1-1-2.1a2.4,2.4,0,0,0-1.65,0l-3.87,3.88a22.59,22.59,0,0,0-3.28-1.11l-.33-4.92c.05-1.27-1.75-1.56-1.75-1.56a2.38,2.38,0,0,0-1.5.67l-2.12,5.05h-.25a23.53,23.53,0,0,0-2.8.16l-2.82-4.33c-.45-1.19-2.22-.76-2.22-.76a2.38,2.38,0,0,0-1.12,1.2v5.48a22.23,22.23,0,0,0-2.94,1.44l-3.69-3.28c-.85-.93-2.34.12-2.34.12a2.35,2.35,0,0,0-.6,1.53l2,5.09.21-.19a25.3,25.3,0,0,0-2.51,2.76l-4.66-1.63c-1.14-.55-2.12,1-2.12,1a2.41,2.41,0,0,0,0,1.65l3.81,3.94a23.64,23.64,0,0,0-1.16,3.25L216,233c-1.26-.07-1.59,1.73-1.59,1.73a2.39,2.39,0,0,0,.65,1.51l5,2.2c0-.07,0-.17,0-.29,0,.32,0,.63,0,1a24.46,24.46,0,0,0,.2,3.1l-4.44,2.15c-1.19.43-.79,2.21-.79,2.21a2.41,2.41,0,0,0,1.19,1.14l5.47.07a23.64,23.64,0,0,0,1.61,3.32l-3.26,3.71c-.93.85.13,2.34.13,2.34a2.41,2.41,0,0,0,1.54.59l5.07-2.06-.18-.19A24.24,24.24,0,0,0,229.4,258l-1.62,4.66c-.53,1.15,1,2.12,1,2.12a2.36,2.36,0,0,0,1.64,0l3.93-3.82-.11-.05a24.31,24.31,0,0,0,3.77,1.3l.36,4.92c0,1.26,1.76,1.55,1.76,1.55a2.34,2.34,0,0,0,1.49-.68l2.1-5.06h.13a24.25,24.25,0,0,0,3.32-.23l2.19,4.43c.44,1.18,2.22.76,2.22.76a2.37,2.37,0,0,0,1.13-1.19l0-5.48a23.89,23.89,0,0,0,3.43-1.72l3.76,3.2c.87.92,2.34-.16,2.34-.16a2.4,2.4,0,0,0,.56-1.55l-2.13-5c-.05.06-.13.12-.21.2a23.55,23.55,0,0,0,2.46-2.82l4.69,1.54c1.16.52,2.11-1,2.11-1a2.4,2.4,0,0,0-.06-1.64l-3.89-3.86a23.09,23.09,0,0,0,1.1-3.29l4.92-.35c1.27.05,1.56-1.76,1.56-1.76A2.39,2.39,0,0,0,272.7,241.39Zm-41,11.34a6,6,0,0,1-2.22.55,20.19,20.19,0,0,1,1.67-29.86,2.54,2.54,0,0,1,2.26.06l7.7,15.38Zm12.18,6.59a20.22,20.22,0,0,1-7.52-1.45,2.68,2.68,0,0,1-1.07-1.86l9.78-14.43,17,.45a5.84,5.84,0,0,1,1.52,1.48A20.21,20.21,0,0,1,243.86,259.32Zm18.68-22.09-17.12-.45-7.54-15.07a6,6,0,0,1,.59-2.07,20.18,20.18,0,0,1,25.22,15.59A2.47,2.47,0,0,1,262.54,237.23Z" transform="translate(-22.62 -34.21)" fill="#939598"/><circle cx="220.72" cy="204.59" r="5.58" fill="#939598"/><circle cx="220.72" cy="204.59" r="2.79" fill="#fff"/><path d="M410,93.48l-5.06-2.1c0,.07,0,.17,0,.28,0-.15,0-.3,0-.46a24,24,0,0,0-.28-3.62l4.39-2.25c1.18-.46.74-2.23.74-2.23A2.34,2.34,0,0,0,408.58,82L403.1,82A23.53,23.53,0,0,0,401.54,79l3.21-3.74c.92-.87-.16-2.34-.16-2.34a2.34,2.34,0,0,0-1.54-.57L398,74.41a2.3,2.3,0,0,1,.2.22,23.63,23.63,0,0,0-2.81-2.48l1.55-4.68c.53-1.15-1-2.11-1-2.11a2.34,2.34,0,0,0-1.64.06l-3.88,3.87a22.88,22.88,0,0,0-3.27-1.11l-.34-4.92C386.83,62,385,61.7,385,61.7a2.37,2.37,0,0,0-1.5.68l-2.12,5.05h-.25a23.52,23.52,0,0,0-2.8.17l-2.82-4.34c-.44-1.18-2.22-.76-2.22-.76a2.38,2.38,0,0,0-1.12,1.21v5.47a25,25,0,0,0-2.94,1.44l-3.69-3.28c-.85-.93-2.34.12-2.34.12a2.43,2.43,0,0,0-.6,1.54l2,5.08a2.2,2.2,0,0,1,.21-.19,23.67,23.67,0,0,0-2.52,2.77L357.7,75c-1.14-.54-2.12,1-2.12,1a2.36,2.36,0,0,0,0,1.64l3.8,3.94a24.25,24.25,0,0,0-1.16,3.26l-4.93.25c-1.26-.08-1.59,1.72-1.59,1.72a2.39,2.39,0,0,0,.65,1.51l5,2.21c0-.08,0-.18,0-.3,0,.32,0,.64,0,1a24.34,24.34,0,0,0,.2,3.1l-4.44,2.15c-1.19.43-.79,2.21-.79,2.21a2.41,2.41,0,0,0,1.19,1.14l5.47.07a23.24,23.24,0,0,0,1.61,3.33l-3.26,3.7c-.93.86.13,2.34.13,2.34a2.41,2.41,0,0,0,1.54.59l5.07-2-.17-.2a24.15,24.15,0,0,0,2.76,2.49l-1.62,4.67c-.53,1.14,1,2.12,1,2.12a2.42,2.42,0,0,0,1.65,0l3.92-3.82-.11,0a23.31,23.31,0,0,0,3.77,1.3l.36,4.92c0,1.27,1.76,1.55,1.76,1.55a2.37,2.37,0,0,0,1.5-.68L381,115h.13a24.14,24.14,0,0,0,3.32-.23l2.19,4.42c.44,1.18,2.22.77,2.22.77a2.42,2.42,0,0,0,1.13-1.2l0-5.48a23.34,23.34,0,0,0,3.43-1.71l3.76,3.2c.87.91,2.34-.17,2.34-.17a2.4,2.4,0,0,0,.57-1.54L398,108a1.37,1.37,0,0,1-.21.2,23.75,23.75,0,0,0,2.47-2.82l4.69,1.54c1.15.52,2.1-1,2.1-1a2.4,2.4,0,0,0-.06-1.64l-3.89-3.86a21.9,21.9,0,0,0,1.1-3.29l4.92-.34c1.27,0,1.56-1.76,1.56-1.76A2.43,2.43,0,0,0,410,93.48Zm-41,11.34a5.88,5.88,0,0,1-2.23.55,20.2,20.2,0,0,1,1.67-29.85,2.5,2.5,0,0,1,2.26,0L378.39,91Zm12.17,6.59a20.17,20.17,0,0,1-7.51-1.45,2.61,2.61,0,0,1-1.07-1.86l9.77-14.42,17,.44a6.2,6.2,0,0,1,1.53,1.48A20.22,20.22,0,0,1,381.16,111.41Zm18.68-22.08-17.11-.46-7.55-15.06a5.83,5.83,0,0,1,.6-2.08A20.22,20.22,0,0,1,401,87.32,2.49,2.49,0,0,1,399.84,89.33Z" transform="translate(-22.62 -34.21)" fill="#939598"/><circle cx="358.02" cy="56.68" r="5.58" fill="#939598"/><circle cx="358.02" cy="56.68" r="2.79" fill="#fff"/><path d="M528.88,249.76l-5.06-2.1a1.4,1.4,0,0,1,0,.28c0-.15,0-.3,0-.46a24,24,0,0,0-.27-3.62l4.39-2.26c1.18-.45.74-2.22.74-2.22a2.39,2.39,0,0,0-1.22-1.11l-5.47,0a23.59,23.59,0,0,0-1.57-3.09l3.22-3.74c.92-.87-.16-2.35-.16-2.35a2.42,2.42,0,0,0-1.55-.57l-5,2.12.21.22a24.53,24.53,0,0,0-2.82-2.48l1.56-4.68c.52-1.16-1-2.11-1-2.11a2.34,2.34,0,0,0-1.64.06l-3.87,3.87a23,23,0,0,0-3.28-1.11l-.33-4.92c.05-1.26-1.76-1.56-1.76-1.56a2.37,2.37,0,0,0-1.5.68l-2.11,5.05h-.25a23.69,23.69,0,0,0-2.81.17l-2.82-4.34c-.44-1.18-2.22-.76-2.22-.76a2.38,2.38,0,0,0-1.12,1.2v5.48a22.73,22.73,0,0,0-2.93,1.44l-3.69-3.28c-.85-.93-2.35.12-2.35.12a2.37,2.37,0,0,0-.59,1.53l2,5.09.21-.19a22.74,22.74,0,0,0-2.51,2.77l-4.66-1.64c-1.15-.54-2.13,1-2.13,1a2.36,2.36,0,0,0,0,1.64l3.81,3.94a22.55,22.55,0,0,0-1.17,3.26l-4.92.24c-1.27-.07-1.59,1.73-1.59,1.73a2.34,2.34,0,0,0,.65,1.51l5,2.21c0-.08,0-.18,0-.3,0,.32,0,.63,0,.95a24.46,24.46,0,0,0,.2,3.1L472,252.73c-1.19.43-.79,2.21-.79,2.21a2.41,2.41,0,0,0,1.19,1.14l5.48.07a22.62,22.62,0,0,0,1.61,3.32l-3.26,3.71c-.93.86.13,2.34.13,2.34a2.37,2.37,0,0,0,1.53.59l5.08-2.05-.18-.2a23.43,23.43,0,0,0,2.77,2.49L484,271c-.54,1.14,1,2.12,1,2.12a2.4,2.4,0,0,0,1.64,0l3.92-3.82-.1,0a22.66,22.66,0,0,0,3.77,1.3l.35,4.92c0,1.27,1.76,1.55,1.76,1.55a2.37,2.37,0,0,0,1.5-.68l2.09-5.06h.14a22.63,22.63,0,0,0,3.31-.24l2.2,4.43c.44,1.18,2.21.77,2.21.77a2.42,2.42,0,0,0,1.13-1.2l0-5.48a22.54,22.54,0,0,0,3.44-1.72l3.75,3.21c.87.91,2.34-.17,2.34-.17a2.36,2.36,0,0,0,.57-1.55l-2.13-5a2.3,2.3,0,0,1-.22.2,23.64,23.64,0,0,0,2.47-2.82l4.69,1.54c1.15.52,2.1-1,2.1-1a2.34,2.34,0,0,0-.06-1.64L522,256.65a24.42,24.42,0,0,0,1.1-3.29L528,253c1.26,0,1.55-1.76,1.55-1.76A2.37,2.37,0,0,0,528.88,249.76Zm-41,11.34a6,6,0,0,1-2.23.55,20.19,20.19,0,0,1,1.68-29.85,2.48,2.48,0,0,1,2.25,0l7.7,15.38Zm12.18,6.59a20.18,20.18,0,0,1-7.52-1.45,2.64,2.64,0,0,1-1.07-1.86L501.24,250l17,.45a6,6,0,0,1,1.53,1.48A20.2,20.2,0,0,1,500.05,267.69Zm18.68-22.08-17.12-.46-7.54-15.06a5.8,5.8,0,0,1,.59-2.08,20,20,0,0,1,5.39-.73,20.21,20.21,0,0,1,19.83,16.32A2.5,2.5,0,0,1,518.73,245.61Z" transform="translate(-22.62 -34.21)" fill="#939598"/><circle cx="476.9" cy="212.96" r="5.58" fill="#939598"/><circle cx="476.9" cy="212.96" r="2.79" fill="#fff"/></g><g id="Layer_3" data-name="Layer 3"><rect x="246.59" y="95.41" width="72.73" height="55.13" rx="12" fill="#91d0b4"/><circle cx="292.59" cy="119.03" r="8.42" fill="#fff"/><path d="M302.89,186l-.76-12.25-12.25-10L280.69,150s2.3-4.59,4.59-2.3l9,11.49,9.47,5,20.1.2L336.2,178l1.72,7.47-5.84.76-2.39-6-3.06-3.16-.39,9.29Z" transform="translate(-22.62 -34.21)" fill="#fff"/></g><g id="Layer_4" data-name="Layer 4"><rect x="417.62" y="86.08" width="13.74" height="52.8" fill="#fcbe7f" stroke="#d36027" stroke-miterlimit="10" stroke-width="0.75"/><rect x="427.79" y="132.26" width="9.4" height="40.5" transform="translate(-12.5 -60.33) rotate(3.5)" fill="#fcbe7f" stroke="#d36027" stroke-miterlimit="10" stroke-width="0.75"/><path d="M464.83,126.81c-4.58,2.41-8,8.68-7.83,16.63a22.43,22.43,0,0,0,22.29,22.29v7.85" transform="translate(-22.62 -34.21)" fill="none" stroke="#d36027" stroke-miterlimit="10" stroke-width="1.5"/><path d="M462.88,133.91s-4.12,5.59-1.91,16l1.14-.46.88.35s.92-1.05,2.87.07l1.33-.54.95.27,1.11-.58.37.54s-1.92,3.93,3,4.94l1.14-.51.58,1.28,2.25,1.75s.66,2.17,1.62,2.29l1.76,1.94.92.27,1.07-.62a11.07,11.07,0,0,1-2.17-1.43c0-.28-.07-2.22-.07-2.22l1-1.08-.85-2,.85-1.32-.48-1.32,1-1.17-.33-2.21-1.25-1.21-2.5-.31-.55.23-1.07-.93-1.51-.07-1.29.69-.4.82-1.11-.89-1.25.66-.36.77-1.29.74-.19-.58-.88-.43-.33-.66-.66.23v.35L466,148l-1.14-.89.37-.78,1.95-1h1.18l1.47-.74,1.21.74s1.1.39.37-.7l-1.47-.85-.7-.43-.44-2.45.51-2.06,1.84-1-.59-1.33,2.17-.11.63-1.94-.66.23s-1.22-1.24-1.92-1.32l-1,1.16-2.58,1.32,0,1.44-.73-.19-.7.19-.7-1.24,1.58-1.52,1,.28,1.33-1.44,1.43-.66a6.12,6.12,0,0,0-1.95-1.44l-1.36.66-1,2-.4.27S465.5,133.45,462.88,133.91Z" transform="translate(-22.62 -34.21)" fill="#fcbe7f"/><path d="M482.31,124.4l1,2.1,1,.46,1.29-.15-.15.77-1.22.86-.4.81.48,1.17-.81,0-1.29.54.15,1.59s.7,1,1,.94a3.74,3.74,0,0,0,1.21-.59c.37-.23.3-.58.48-1.08a5.41,5.41,0,0,1,1.1-1.36l.45-.93,1.69,1.32s.18,1,.29,1a4.13,4.13,0,0,0,.41-.94l.77-.34-1.77-.86,0-.7,1.25.27.88.9,1.07-.12,1,.27.55-.39S487.68,124.9,482.31,124.4Z" transform="translate(-22.62 -34.21)" fill="#fcbe7f"/><path d="M482.12,128.71c-.58-.86-.77-1.13-.88-1.05s-.22.74-.22.74l.55.66.22.74,0,.62.85-.82.36-.54Z" transform="translate(-22.62 -34.21)" fill="#fbb040"/><path d="M480.47,128.79a3.26,3.26,0,0,1,.62.54v.85l-.4.43-.66-.35.33-.85Z" transform="translate(-22.62 -34.21)" fill="#fbb040"/><polygon points="449.79 103.08 450.9 102.5 451.26 102.96 450.9 103.89 450.2 103.86 449.79 103.08" fill="#fbb040"/><polygon points="449.54 103.93 450.31 104.44 450.01 105.1 448.84 104.75 449.54 103.93" fill="#fbb040"/><path d="M493.75,131.5l-1.33.67-1.17,0s-.63-.73-1.62,2.18l-2.43-.51-2,1.17-.62,1.05-1.44.66-.25.89.88,2.33-.26.74s.77,3.26,2.25,3.38a7,7,0,0,0,3.05-.66l1-1.28,1.22-.47h1.28l.56,1.59,1.1.86-.44,2.09,2.09,1.87.63,1.36,1.18.19a22.8,22.8,0,0,0,.29-10A18.73,18.73,0,0,0,493.75,131.5Z" transform="translate(-22.62 -34.21)" fill="#fcbe7f"/><polyline points="421.96 94.76 424.13 98.38 428.46 92.59" fill="none" stroke="#fff" stroke-miterlimit="10"/><line x1="421.23" y1="103.44" x2="427.74" y2="103.44" fill="none" stroke="#fff" stroke-miterlimit="10"/><line x1="420.99" y1="107.78" x2="427.5" y2="107.78" fill="none" stroke="#fff" stroke-miterlimit="10"/><line x1="443.17" y1="139.64" x2="469.93" y2="139.64" fill="none" stroke="#d36027" stroke-miterlimit="10" stroke-width="0.75"/><circle cx="456.67" cy="109.23" r="18.81" fill="none" stroke="#d36027" stroke-miterlimit="10" stroke-width="0.75"/></g><g id="Layer_5" data-name="Layer 5"><path d="M117.44,111.49" transform="translate(-22.62 -34.21)" fill="#fff" stroke="#6095cf" stroke-miterlimit="10"/><path d="M117.44,111.49,136,121.34l19.37-8.68s-2.68-12.36-5.18-13.36H121.28A30.28,30.28,0,0,0,117.44,111.49Z" transform="translate(-22.62 -34.21)" fill="#fff" stroke="#6095cf" stroke-miterlimit="10"/><polygon points="86.81 61.58 113.19 74.94 140.39 61.58 114.02 49.06 86.81 61.58" fill="#fff" stroke="#6095cf" stroke-miterlimit="10"/><path d="M138,95.48c0,.33-.9.59-2,.59a5.93,5.93,0,0,1-1.2-.12c-.49-.11-.8-.28-.8-.47s.9-.58,2-.58S138,95.16,138,95.48Z" transform="translate(-22.62 -34.21)" fill="#fff" stroke="#6095cf" stroke-miterlimit="10"/><polyline points="112.85 61.92 99.67 68.26 99.67 82.28" fill="none" stroke="#6095cf" stroke-miterlimit="10"/><rect x="98" y="82.28" width="3.61" height="11.22" rx="1.8" fill="#fff" stroke="#6095cf" stroke-miterlimit="10"/></g></svg>